<?xml version="1.0" encoding="UTF-8"?><svg id="Layer_1" xmlns="http://www.w3.org/2000/svg" viewBox="0 0 500 200"><defs><style>.cls-1{stroke:#f9f8d1;stroke-miterlimit:10;stroke-width:.25px;}.cls-1,.cls-2{fill:#f9f8d1;}.cls-3{fill:#e37125;}.cls-4{fill:#353535;}</style></defs><path class="cls-4" d="m485.31,68.61l-6.17-6.17c.06-.32.13-.7.19-1.08.06-.32.06-.7.06-1.15,0-1.21-.19-2.35-.64-3.31s-1.02-1.78-1.72-2.48l-9.04-8.97c-1.02-1.02-2.23-1.78-3.57-2.29-1.34-.51-2.67-.76-3.88-.76-1.85,0-3.69.38-5.54,1.21-1.85.83-3.57,1.91-5.15,3.25-1.59,1.34-3.12,2.93-4.46,4.64-1.34,1.78-2.55,3.63-3.5,5.54-.07.13-.12.25-.19.38l-4.77-4.77c-.57-.57-1.21-1.02-1.97-1.34l-6.05-5.98c-.96-.96-2.04-1.65-3.37-2.16-1.34-.51-2.93-.76-4.71-.76-2.04,0-4.01.38-5.98,1.21-1.97.83-3.88,1.91-5.6,3.25s-3.31,2.93-4.77,4.71c-1.27,1.6-2.39,3.26-3.37,4.96l-5.47-5.47c-.57-.57-1.27-1.02-1.97-1.34-.76-.26-1.59-.45-2.42-.51l-3.82-3.82c-1.97-1.97-4.71-2.99-8.15-2.99-2.04,0-4.01.38-5.98,1.21-1.97.83-3.88,1.91-5.6,3.25-1.56,1.21-3,2.64-4.35,4.22l-6.78-6.83c-.7-.64-1.46-1.08-2.35-1.4-.96-.32-1.85-.45-2.74-.45h-9.67l-1.72-1.72c-.45-.45-1.02-.83-1.65-1.08-.63-.25-1.4-.38-2.35-.38-.76,0-1.59.13-2.55.38-.96.25-1.91.64-2.8,1.08-.95.51-1.78,1.08-2.48,1.72-.76.7-1.27,1.4-1.53,2.23-.06.19-.13.45-.13.63-.06.19-.06.38-.06.57,0,.45.06.89.26,1.21.19.38.38.76.7,1.08l1.65,1.59c-.06.64-.25,1.4-.45,2.23-.19.83-.45,1.78-.76,2.74-.14.48-.28.95-.41,1.43l-5.05-5.05c-.57-.57-1.27-1.02-1.97-1.34-.76-.26-1.59-.45-2.42-.51l-3.82-3.82c-1.97-1.97-4.71-2.99-8.15-2.99-.79,0-1.57.08-2.35.2.46-2.11.7-4.11.7-5.99,0-2.23-.32-4.2-.96-5.92-.63-1.65-1.52-3.06-2.73-4.26l-8.97-9.04c-2.67-2.61-6.3-3.88-10.94-3.88-2.93,0-5.73.32-8.46,1.02s-5.41,1.65-7.89,2.86c-2.55,1.21-4.96,2.67-7.19,4.33-2.29,1.72-4.46,3.57-6.49,5.6-2.61,2.61-5.03,5.54-7.38,8.78-2.36,3.25-4.39,6.74-6.11,10.37-1.72,3.63-3.12,7.38-4.13,11.2-1.08,3.88-1.59,7.7-1.59,11.45,0,7.45,2.1,13.24,6.24,17.31l8.97,9.04c2.04,2.04,4.52,3.57,7.38,4.58,2.86,1.08,6.11,1.59,9.8,1.59,3.37,0,6.43-.7,9.29-2.04.32.7.7,1.21,1.27,1.65.51.45,1.08.76,1.65.96.57.19,1.08.38,1.65.45.57.06,1.02.13,1.34.13.89,0,2.04-.13,3.37-.38,1.34-.25,2.61-.63,3.88-1.21,1.21-.51,2.29-1.14,3.25-1.97.89-.83,1.34-1.72,1.34-2.8,0-.7-.32-1.34-.96-1.91l-1.78-1.78c.13-.96.38-2.16.76-3.5.25-.96.51-1.91.83-2.8.25-.89.51-1.65.7-2.35.08-.26.16-.51.24-.77l4.08,4.08c1.34,1.34,2.99,2.35,4.96,2.93,1.91.63,3.94.95,6.05.95,1.34,0,2.61-.25,3.82-.83,1.21-.57,2.23-1.15,3.06-1.78l1.14-.89c1.34,1.47,2.99,2.42,4.84,2.86,1.85.45,3.69.64,5.6.64,2.55,0,4.9-.64,7.06-1.91,2.1-1.21,4.07-2.8,5.79-4.77.8-.89,1.54-1.83,2.24-2.81l6.29,6.24c.7.7,1.46,1.21,2.35,1.65.83.45,1.72.76,2.67.95.89.26,1.78.45,2.73.51.89.06,1.72.13,2.48.13,2.48,0,4.84-.64,7-1.91,1.43-.82,2.79-1.83,4.05-3.01l1.03,1.03c1.34,1.34,2.99,2.35,4.96,2.93,1.91.63,3.94.95,6.05.95,1.34,0,2.61-.25,3.82-.83,1.21-.57,2.23-1.15,3.06-1.78l1.14-.89c1.34,1.47,2.99,2.42,4.84,2.86,1.27.31,2.54.49,3.83.57-.53.94-.97,1.92-1.35,2.93-.57,1.59-.83,3.18-.83,4.84,0,1.4.25,2.61.7,3.69.45,1.08,1.02,2.04,1.78,2.8l9.04,9.04c.83.83,1.91,1.47,3.12,1.91,1.21.45,2.55.7,3.88.7,2.55,0,5.03-.32,7.45-.96,2.35-.63,4.58-1.59,6.62-2.86,2.04-1.21,3.82-2.8,5.41-4.64,1.53-1.85,2.74-3.95,3.63-6.43l3.69-10.06c2.55-1.08,4.84-2.23,6.94-3.5,1.53-.93,2.93-1.96,4.21-3.09l1.26,1.25c1.59,1.59,3.57,2.74,5.85,3.44,2.29.7,4.58,1.02,6.87,1.02,2.48,0,4.9-.64,7.25-1.84,2.29-1.21,4.39-2.8,6.36-4.71,1.91-1.91,3.63-4.01,5.09-6.36,1.46-2.29,2.55-4.52,3.31-6.68.06-.19.06-.38.13-.64.06-.19.06-.38.06-.57,0-.57-.32-1.21-.96-1.85Zm-226.14,12.03c-.06-.19-.06-.45-.06-.89,0-1.08.06-2.23.19-3.37l3.18,3.18c-1.08.57-2.23.89-3.31,1.08Zm6.17-24.12c.19-.51.45-1.02.7-1.53.25-.45.51-.96.76-1.47l3.37,3.37c-1.59-.19-3.18-.32-4.83-.38Z"/><path class="cls-3" d="m280.79,16.32c-19.54,0-36.34,18.39-43.02,36.72-6.62,18.07-3.25,36.08,17.18,36.08,5.41,0,9.74-2.1,13.43-5.6-.7,1.47-.57,1.27-1.08,2.42-1.21,3.25.51,4.33,2.86,4.33,3.44,0,8.21-2.1,8.59-3.12.13-.25-.13-.51-.96-.51-4.13-.13-.32-8.4,3.12-21.13,1.14-4.46.51-5.79-1.34-5.79l-4.65.06c-5.98,0-7.38-.26-10.5-.45-3.37,0-5.22,2.04-6.05,4.39-1.27,3.44-.45,7.64.57,7.64.32,0,.57-.32.89-1.08l.06-.13c.89-2.48,3.5-2.93,6.87-3.63,1.65-.32,5.79-1.02,9.35-1.59-3.94,9.35-8.65,18.71-19.22,18.71-11.96,0-12.09-15.53-6.43-30.99,5.6-15.46,16.99-30.86,28.06-30.86,4.9,0,5.15,4.52,3.18,9.93-1.97,5.34-5.98,11.45-9.8,15.02-.76.76-1.34.96-1.78.96-.57,0-1.14-.26-2.04-.26-.45,0-.76.26-.89.57-.45,1.27,1.4,3.94,8.53,3.94,2.74,0,4.58-.06,7.32-2.93,2.8-2.86,5.54-7.38,7.25-12.22,3.57-9.74,3.06-20.49-9.54-20.49Z"/><path class="cls-3" d="m472.63,60.54c-.89,0-1.91.25-2.1.7-2.55,7.13-9.61,13.75-13.55,13.75-5.15,0-4.52-7.19-3.31-10.56l.19-.45c.76.57,1.46.76,2.55.76,4.45,0,8.27-5.73,9.86-10.18.38-1.14.7-2.16.83-2.99.51-3.31-2.61-6.36-6.62-6.36-7,0-14.26,8.02-17.43,16.48-.3.83-.54,1.65-.73,2.47-2.8,6.14-6.77,9.59-13.59,12.36l5.92-16.29c1.85-4.96.06-6.62-2.67-6.62-1.02,0-2.16.25-3.31.57.32-5.09-1.78-8.97-7.89-8.97-7.95,0-15.97,8.53-19.03,16.93-.22.59-.4,1.18-.57,1.77-2.76,6.03-7.19,11.09-10.69,11.09-2.8,0-1.91-3.75-.13-8.53.89-2.48,1.97-5.22,2.99-7.89,1.78-4.96,0-6.56-2.8-6.56-1.02,0-2.23.19-3.44.57-.19-4.33-2.48-7.38-7.89-7.38-8.02,0-15.97,8.46-19.03,16.93-.21.59-.4,1.17-.56,1.75-2.77,6.04-7.24,11.1-10.7,11.1-2.8,0-.83-6.87,1.59-13.43,1.4-3.82,2.93-7.51,3.69-9.74,1.85-5.03.06-6.62-2.8-6.62h-12.98c.25-2.35-.89-3.18-2.42-3.18-2.48,0-5.92,2.1-6.36,3.25-.13.45.13.7,1.02.7,2.29,0,1.91,2.61.96,6.43-.98,3.8-1.77,6.57-2.57,8.93-2.56,7.1-7.75,13.66-11.74,13.66-2.8,0-1.91-3.75-.13-8.53.89-2.48,1.97-5.22,2.99-7.89,1.78-4.96,0-6.56-2.8-6.56-1.02,0-2.23.19-3.44.57-.19-4.33-2.48-7.38-7.89-7.38-8.02,0-15.97,8.46-19.03,16.93-3.05,8.34-1.34,16.61,9.86,16.61,2.8,0,6.05-2.42,8.91-5.85.64,4.9,5.09,5.85,9.55,5.85,7.6,0,13.73-8.72,16.71-16.1.03-.04.07-.08.09-.12,1.97-4.71,2.61-6.55,3.37-8.59l1.08-2.86h6.36c.25,1.27-.83,4.46-2.35,8.66l-1.85,5.09c-4.39,12.03,1.97,13.94,8.21,13.94,4.71,0,8.86-3.41,12.05-7.77.72,4.5,4.01,7.77,11.05,7.77,2.8,0,6.05-2.42,8.91-5.85.64,4.9,5.09,5.85,9.55,5.85,4.73,0,8.88-3.39,12.07-7.72.75,4.47,4.05,7.72,11.02,7.72,2.23,0,4.77-1.59,7.19-4.01-.51,1.65-1.21,3.5-2.16,6.17-8.21,2.93-16.16,5.6-19.09,13.62-2.04,5.54-.19,10.06,5.54,10.06,12.22,0,18.13-7.38,20.11-12.85l4.14-11.39c6.48-2.5,11.2-5.41,14.76-9.93.95,4.78,4.87,8.34,12.92,8.34s16.04-9.35,18.97-17.5c.19-.45-.51-.7-1.34-.7Zm-11.45-10.82c1.02,0,.96,1.85.13,4.01-1.14,3.12-3.75,7-6.49,7.06.89-2.23,4.64-11.07,6.36-11.07Zm-150.67,4.2c-1.91.96-3.37,1.97-3.57,2.55-.13.32.13.51.76.51,1.65,0,1.34,2.8.13,6.24-1.84,5.03-5.79,11.39-8.21,11.39-3.25,0-2.42-5.98-.13-12.15,2.35-6.56,6.3-13.36,8.46-13.36s2.86,1.97,2.55,4.84Zm73.17,0c-1.91.96-3.37,1.97-3.57,2.55-.13.32.13.51.76.51,1.65,0,1.34,2.8.13,6.24-1.84,5.03-5.79,11.39-8.21,11.39-3.25,0-2.42-5.98-.13-12.15,2.35-6.56,6.3-13.36,8.46-13.36s2.86,1.97,2.55,4.84Zm21.89,46.9c-2.1,0-2.67-2.99-1.46-6.43,1.4-3.75,4.96-8.08,11.14-9.74-3.56,9.86-6.56,16.16-9.67,16.16Zm19.54-45.24c-1.91.96-3.37,1.97-3.57,2.55-.13.32.06.51.7.51,1.65,0,1.27,1.85.06,5.47-2.42,5.54-5.79,10.5-7.95,10.5-3.25,0-2.42-5.98-.13-12.15,2.35-6.56,6.3-13.36,8.46-13.36,2.55,0,3.05,2.8,2.42,6.49Z"/><path class="cls-4" d="m215.63,70.62l-8.66-8.66c.06-.25.06-.51.13-.83v-.83c0-1.08-.13-2.04-.45-2.8-.32-.7-.76-1.34-1.27-1.91l-9.04-8.97c-.51-.51-1.08-.89-1.65-1.21-.57-.32-1.21-.51-1.78-.7-.64-.13-1.21-.26-1.78-.32-.57-.06-1.02-.06-1.46-.06-2.1,0-4.07.32-5.85.96-1.85.7-3.5,1.59-5.09,2.67l-1.72-1.78c-.7-.64-1.46-1.08-2.29-1.4-.66-.24-1.32-.37-2.01-.42-.07-.32-.15-.63-.27-.92-.32-.7-.76-1.34-1.27-1.91l-9.04-8.97c-.96-.95-2.04-1.65-3.31-1.97-1.27-.32-2.29-.45-3.12-.45-1.34,0-2.67.26-4.07.7-1.47.45-2.74,1.14-3.88,1.97-1.21.83-2.16,1.84-2.86,3.05-.76,1.21-1.14,2.55-1.14,4.01,0,.22.02.43.03.64l-5.19-5.22c-.7-.64-1.46-1.08-2.29-1.4-.89-.32-1.78-.45-2.74-.45-1.47,0-2.93.26-4.33.7-.93.3-1.86.67-2.78,1.08l-6.13-6.17c-.7-.64-1.46-1.08-2.29-1.4-.89-.32-1.78-.45-2.74-.45s-1.91.13-2.99.38c-1.08.26-2.16.57-3.24.96-1.08.45-2.04.89-2.99,1.4-.95.57-1.78,1.08-2.48,1.65-.06.06-.26.25-.45.57-.19.32-.45.64-.64.96-.19.32-.38.7-.57,1.02-.19.32-.26.57-.26.76,0,.83.13,1.53.45,2.04.32.51.7.89,1.21,1.15l-.63,2.16c-.32.83-.57,1.65-.89,2.48-.32.83-.51,1.46-.7,1.91-.66,1.79-1.3,3.56-1.94,5.31l-3.27-3.27c-.7-.7-1.59-1.27-2.55-1.72-1.02-.45-2.23-.64-3.56-.64s-2.69.15-3.93.44c.5-2.2.75-4.27.75-6.23,0-2.23-.32-4.2-.96-5.92-.63-1.65-1.52-3.06-2.73-4.26l-8.97-9.04c-2.67-2.61-6.3-3.88-10.94-3.88-2.93,0-5.73.32-8.46,1.02s-5.41,1.65-7.89,2.86c-2.55,1.21-4.96,2.67-7.19,4.33-2.29,1.72-4.46,3.57-6.49,5.6-2.61,2.61-5.03,5.54-7.38,8.78-2.36,3.25-4.39,6.74-6.11,10.37-1.72,3.63-3.12,7.38-4.13,11.2-1.08,3.88-1.59,7.7-1.59,11.45,0,7.45,2.1,13.24,6.24,17.31l8.97,9.04c2.04,2.04,4.52,3.57,7.38,4.58,2.86,1.08,6.11,1.59,9.8,1.59,3.37,0,6.43-.7,9.29-2.04.32.7.7,1.21,1.27,1.65.51.45,1.08.76,1.65.96.57.19,1.08.38,1.65.45.57.06,1.02.13,1.34.13.89,0,2.04-.13,3.37-.38,1.34-.25,2.61-.63,3.88-1.21,1.21-.51,2.29-1.14,3.25-1.97.89-.83,1.34-1.72,1.34-2.8,0-.7-.32-1.34-.96-1.91l-1.78-1.78c.13-.96.38-2.16.76-3.5.25-.96.51-1.91.83-2.8.24-.83.47-1.54.65-2.2l3.41,3.41c1.21,1.15,2.61,2.04,4.2,2.67,1.59.63,3.37.95,5.34.95,2.23,0,4.39-.45,6.36-1.27,1.97-.83,3.82-1.91,5.47-3.31.78-.66,1.51-1.38,2.21-2.15l3.51,3.48c.5.5,1.04.91,1.64,1.26-.04.15-.07.3-.11.46-.32,1.34-.51,2.74-.51,4.14,0,1.65.26,3.06.76,4.26.45,1.21,1.08,2.23,1.91,3.05l9.04,8.97c1.21,1.21,2.61,2.04,4.26,2.48,1.65.45,3.31.7,4.96.7,2.42,0,4.65-.7,6.62-2.1,1.97-1.4,3.69-3.18,5.15-5.28,1.4-2.1,2.48-4.33,3.25-6.81.76-2.42,1.14-4.71,1.14-6.81,0-.32,0-.64-.06-1.08-.06-.45-.13-.89-.19-1.4,1.41-.66,2.73-1.51,3.98-2.5l.66.66c.7.7,1.46,1.21,2.29,1.65.83.45,1.72.76,2.67.95.89.26,1.78.45,2.74.51.89.06,1.72.13,2.48.13,2.55,0,4.9-.64,7.07-1.91.08-.04.15-.1.23-.15l.21.21c.64.63,1.4,1.08,2.29,1.4.83.32,1.72.45,2.67.45s1.97-.13,3.06-.38c1.08-.26,2.16-.57,3.25-1.02,1.08-.38,2.1-.83,3.05-1.34.96-.51,1.72-1.02,2.42-1.59.19-.19.45-.57.89-1.21.38-.64.7-1.21.89-1.65l3.94,3.95c.7.7,1.47,1.21,2.36,1.65.83.45,1.72.76,2.67.95.89.26,1.78.45,2.74.51.89.06,1.72.13,2.48.13,2.55,0,4.9-.64,7.07-1.91,2.1-1.21,4.07-2.8,5.79-4.77,1.72-1.91,3.18-4.01,4.46-6.36,1.21-2.29,2.23-4.46,2.99-6.56l.19-1.21c0-.57-.32-1.14-.96-1.78Zm-174.35,11.96c-.06-.19-.06-.45-.06-.89,0-1.08.06-2.23.19-3.37l3.18,3.18c-1.08.57-2.23.89-3.31,1.08Zm6.17-24.12c.19-.51.45-1.02.7-1.53.25-.45.51-.96.76-1.47l3.37,3.37c-1.59-.19-3.18-.32-4.83-.38Z"/><path class="cls-4" d="m228.04,17.29l9.04,8.97c1.34,1.34,1.97,3.06,1.97,5.15,0,1.34-.25,2.67-.83,4.07-.57,1.4-1.27,2.67-2.23,3.88-.96,1.21-2.04,2.29-3.24,3.12-1.21.83-2.55,1.4-3.88,1.59l-.83.06c-.64,0-1.21-.13-1.65-.32-.45-.19-.89-.51-1.21-.83l-8.97-8.97c-.25-.19-.45-.45-.63-.76-.19-.26-.32-.51-.45-.83l-.32-4.13c-.83-1.08-1.27-2.36-1.27-3.88,0-1.21.25-2.42.83-3.5.51-1.08,1.21-2.04,2.1-2.86.89-.83,1.91-1.53,3.05-2.04,1.08-.45,2.23-.7,3.44-.7,2.16,0,3.88.63,5.09,1.97Z"/><path class="cls-3" d="m62.91,18.26c-19.54,0-36.34,18.39-43.02,36.72-6.62,18.07-3.25,36.08,17.18,36.08,5.41,0,9.74-2.1,13.43-5.6-.7,1.47-.57,1.27-1.08,2.42-1.21,3.25.51,4.33,2.86,4.33,3.44,0,8.21-2.1,8.59-3.12.13-.25-.13-.51-.96-.51-4.13-.13-.32-8.4,3.12-21.13,1.14-4.46.51-5.79-1.34-5.79l-4.65.06c-5.98,0-7.38-.26-10.5-.45-3.37,0-5.22,2.04-6.05,4.39-1.27,3.44-.45,7.64.57,7.64.32,0,.57-.32.89-1.08l.06-.13c.89-2.48,3.5-2.93,6.87-3.63,1.65-.32,5.79-1.02,9.35-1.59-3.94,9.35-8.65,18.71-19.22,18.71-11.96,0-12.09-15.53-6.43-30.99,5.6-15.46,16.99-30.86,28.06-30.86,4.9,0,5.15,4.52,3.18,9.93-1.97,5.34-5.98,11.45-9.8,15.02-.76.76-1.34.96-1.78.96-.57,0-1.14-.26-2.04-.26-.45,0-.76.26-.89.57-.45,1.27,1.4,3.94,8.53,3.94,2.74,0,4.58-.06,7.32-2.93,2.8-2.86,5.54-7.38,7.25-12.22,3.57-9.74,3.06-20.49-9.54-20.49Z"/><path class="cls-3" d="m89.69,47.15c-5.54,0-9.61,3.25-11.52,6.68l-1.02-.06c-1.85,0-3.63.7-4.77,2.23-2.1,2.86-3.63,5.66-4.58,8.27-3.44,9.35.51,16.42,8.78,16.42s14.57-7.57,17.5-15.53c3.18-8.78,2.29-18.01-4.39-18.01Zm-1.85,17.95c-2.23,6.05-5.85,11.84-8.66,11.84-2.99,0-.38-9.04,1.47-14.13l.51-1.34.64.13c.89,0,1.85-.63,1.91-.89v-.13c-.76-1.14-.51-3.44.26-5.41.7-2.04,1.91-3.82,2.99-3.82,4.01,0,3.31,7.07.89,13.75Z"/><path class="cls-3" d="m151.86,43.27c3.69,0,7.51-2.35,8.53-5.15,1.02-2.86-1.08-5.15-4.77-5.15s-7.51,2.29-8.53,5.15c-1.08,2.8,1.08,5.15,4.77,5.15Z"/><path class="cls-3" d="m202.89,62.49c-.89,0-1.91.25-2.1.7-2.55,7.13-7.76,13.75-11.77,13.75-2.8,0-.96-6.3,1.53-13.17,1.27-3.37,2.61-6.87,3.69-9.86,1.97-5.34-1.08-6.74-4.64-6.74-6.62.06-12.03,4.46-16.35,10.5l1.4-3.88c1.85-5.03.06-6.62-2.74-6.62-4.01,0-9.99,3.25-10.43,4.52-.13.32.06.51.7.51,2.02,0,1.66,1.79-2.64,13.73-2.77,6.01-7.22,11.03-10.66,11.03-2.86,0-.76-6.94,1.72-13.87,1.27-3.37,2.61-6.75,3.5-9.29,1.85-5.03.06-6.62-2.74-6.62-3.95,0-9.93,3.25-10.44,4.52-.06.32.13.51.76.51,2.23,0,1.27,2.86-2.35,12.85l-.17.46c-4.32,9.66-11.16,11.82-15.42,11.82l12.47-34.43c1.84-5.03.06-6.62-2.74-6.62-3.95,0-9.99,3.25-10.44,4.52-.13.32.06.51.76.51,2.1,0,1.27,2.67-1.53,10.37l-5.29,14.46c-2.78,5.91-7.17,10.81-10.61,10.81-2.99,0-.38-9.23,3.18-18.97,3.31-9.16,7.44-18.77,8.4-21.32,1.85-5.03.06-6.62-2.74-6.62-3.95,0-9.93,3.24-10.44,4.52-.06.32.13.51.76.51,2.1,0,1.27,2.61-1.53,10.31-.89,2.48-3.44,9.35-7.83,21.38-4.39,12.03,1.97,13.94,8.21,13.94,3.2,0,6.13-1.56,8.68-3.9l-4.36,11.92c-3.31,9.16-.7,14.06,7.38,14.06,5.35,0,9.61-5.54,11.65-11.2,1.65-4.58,1.85-9.29-.13-10.88,3.89-1.03,7.08-3.41,9.65-6.39.38,5.35,5.02,6.39,9.57,6.39,3.37,0,6.44-1.73,9.09-4.28-.52,3.19,1.12,4.28,3.38,4.28,4.01,0,9.99-3.25,10.5-4.52.06-.32-.13-.51-.76-.51-1.02,0-.89-1.46-.06-3.69,2.35-6.56,10.75-19.54,13.55-19.54,1.34,0,.57,2.61-1.34,7.89l-2.36,6.43c-4.39,12.03,1.97,13.94,8.21,13.94,8.08,0,14.51-9.86,17.25-17.5.19-.45-.57-.7-1.4-.7Zm-79.29,29.33c-1.4,3.82-3.69,7.19-5.73,7.19s1.65-10.12,3.12-14.32l1.15-3.12h.06c3.44,0,3.12,5.41,1.4,10.25Z"/><path class="cls-3" d="m218.99,31.62c-.83,0-1.53-1.4-1.21-2.29.13-.25.26-.45.51-.57,1.27-.7,2.61-1.27,2.93-2.1-.57.19-1.08.25-1.59.25-2.35,0-3.63-1.91-2.74-4.39.89-2.42,3.57-4.39,5.98-4.39,3.75,0,4.64,3.31,3.37,6.74-1.02,2.8-3.56,5.73-7.06,6.74h-.19Z"/><rect class="cls-4" x="13.73" y="126.21" width="472.54" height="60.28" rx="14.08" ry="14.08"/><path class="cls-1" d="m77.94,137.16c.61,0,1.17.1,1.68.31.51.2.94.44,1.29.72.35.28.6.56.76.85.16.29.2.49.11.61-.09,0-.22.04-.39.13-.17.09-.35.2-.52.35s-.34.29-.5.44c-.16.15-.25.26-.28.35-.64,1.05-1.3,2.36-1.98,3.95-.68,1.58-1.33,3.3-1.94,5.15-.61,1.85-1.16,3.76-1.64,5.73-.48,1.98-.81,3.89-.98,5.73-.17,1.85-.18,3.55-.02,5.1.16,1.55.57,2.83,1.24,3.82-.87.17-1.62.15-2.25-.07-.63-.22-1.15-.59-1.57-1.11-.42-.52-.75-1.17-.98-1.94-.23-.77-.39-1.64-.48-2.59-.58.79-1.21,1.51-1.9,2.18-.68.67-1.39,1.23-2.11,1.68-.73.45-1.47.79-2.22,1.02-.76.23-1.48.32-2.18.26-1.25-.12-2.24-.42-2.96-.92-.73-.49-1.24-1.13-1.55-1.9s-.43-1.63-.37-2.57c.06-.94.26-1.93.61-2.94l6.63-19.62c-1.54-.06-3.02.2-4.45.78-1.42.58-2.65,1.5-3.66,2.75-.81.99-1.34,2.15-1.57,3.49-.17,1.02-.13,1.99.13,2.92-.35-.03-.75-.15-1.2-.37-.45-.22-.89-.47-1.33-.76-.44-.29-.83-.61-1.18-.96s-.58-.67-.7-.96c-.38-.87-.38-1.74-.02-2.59.36-.86.9-1.65,1.61-2.38.71-.73,1.52-1.36,2.42-1.9.9-.54,1.7-.94,2.4-1.2.46-.15,1.1-.31,1.92-.5.81-.19,1.69-.33,2.64-.44.94-.1,1.9-.14,2.86-.11.96.03,1.82.17,2.57.44.76.26,1.35.66,1.79,1.2.44.54.6,1.26.48,2.16-.06.32-.15.67-.26,1.05l-6.37,18.62c-.15.44-.25.87-.31,1.31-.06.44-.06.84,0,1.22.06.38.17.69.33.94.16.25.37.41.63.5.55.17,1.13.04,1.74-.39.61-.44,1.21-1.06,1.79-1.88.58-.81,1.14-1.74,1.68-2.77.54-1.03,1.02-2.06,1.44-3.07.42-1.02.77-1.95,1.05-2.81.28-.86.44-1.5.5-1.94.12-.58.28-1.41.48-2.49.2-1.07.45-2.25.74-3.51.29-1.26.64-2.55,1.05-3.86.41-1.31.87-2.49,1.4-3.55.52-1.06,1.11-1.93,1.77-2.62.65-.68,1.37-1.02,2.16-1.02Z"/><path class="cls-1" d="m94.59,159.62c.32.12.55.34.7.68.15.33.1.72-.13,1.16-.81,1.4-1.76,2.59-2.83,3.6-1.08,1-2.28,1.53-3.62,1.59-1.1,0-1.98-.22-2.62-.68-.64-.45-1.1-1.04-1.4-1.77-.29-.73-.41-1.52-.37-2.38.04-.86.2-1.71.46-2.55l2.18-6.58c-.67.32-1.37.85-2.09,1.59-.73.74-1.4,1.6-2.01,2.57-.61.97-1.13,2.01-1.55,3.1-.42,1.09-.68,2.11-.76,3.07-.03.67.06,1.24.26,1.7.2.47.54.77,1,.92-.64.41-1.3.7-1.98.87-.68.17-1.34.16-1.98-.04-.73-.2-1.26-.54-1.59-1-.33-.46-.55-1-.65-1.61-.1-.61-.11-1.25-.02-1.92.09-.67.2-1.29.35-1.88.41-1.34.83-2.62,1.26-3.84.44-1.22.89-2.49,1.35-3.79.09-.52.01-.87-.22-1.05.09-.29.39-.48.89-.57.51-.09,1.05-.05,1.64.11.58.16,1.11.44,1.59.85.48.41.73.96.76,1.66.29-.29.64-.6,1.05-.94.41-.33.84-.64,1.31-.92.46-.28.94-.49,1.42-.65.48-.16.94-.24,1.37-.24.99.03,1.82.33,2.51.92.68.58.97,1.41.85,2.49-.03.29-.12.65-.26,1.09l-1.92,5.71c-.23.76-.34,1.31-.33,1.66.01.35.12.55.33.61.2.09.46.05.78-.11s.65-.39,1-.7c.35-.31.68-.65,1-1.02.32-.38.6-.74.83-1.09.17-.23.39-.41.63-.54.25-.13.52-.15.81-.07Z"/><path class="cls-1" d="m103.45,159.62c.32.12.55.34.7.68.15.33.1.72-.13,1.16-.81,1.4-1.76,2.59-2.83,3.6-1.08,1-2.28,1.53-3.62,1.59-1.1,0-1.98-.22-2.62-.68-.64-.45-1.1-1.04-1.4-1.77-.29-.73-.42-1.52-.39-2.38.03-.86.19-1.71.48-2.55l2.27-6.93c.09-.52.01-.86-.22-1,.09-.29.41-.49.96-.59.55-.1,1.14-.06,1.77.13.62.19,1.17.54,1.63,1.07.46.52.64,1.24.52,2.14-.03.29-.12.65-.26,1.09l-1.92,5.71c-.23.76-.34,1.31-.33,1.66.01.35.12.55.33.61.2.09.46.05.78-.11.32-.16.65-.39,1-.7.35-.31.68-.65,1-1.02.32-.38.6-.74.83-1.09.15-.23.35-.41.61-.54s.54-.15.83-.07Zm-3.71-10.9c-.55-.12-1.02-.4-1.4-.85-.38-.45-.57-.94-.57-1.46,0-.55.19-.98.57-1.29.38-.31.84-.4,1.4-.28.52.12.97.4,1.35.85.38.45.57.94.57,1.46,0,.55-.19.98-.57,1.29-.38.31-.83.4-1.35.28Z"/><path class="cls-1" d="m121.15,159.62c.32.12.55.34.7.68.15.33.1.72-.13,1.16-.81,1.4-1.76,2.59-2.83,3.6-1.08,1-2.28,1.53-3.62,1.59-.2,0-.39,0-.57-.02-.17-.01-.33-.04-.48-.07l-1.57,4.58c-.49,1.42-.7,2.63-.61,3.62.09.99.51,1.6,1.26,1.83-.67.41-1.34.69-2.01.85-.67.16-1.32.15-1.96-.02-.73-.2-1.26-.54-1.59-1-.33-.47-.55-1-.65-1.61-.1-.61-.11-1.25-.02-1.92.09-.67.2-1.29.35-1.88l1.92-5.67c-.41.41-.87.74-1.37,1-.51.26-1.07.36-1.68.31-1.02-.09-1.83-.34-2.44-.76-.61-.42-1.05-.96-1.33-1.61-.28-.65-.43-1.38-.46-2.18-.03-.8.03-1.62.17-2.46.17-1.02.49-2.06.94-3.12.45-1.06,1.02-2.03,1.72-2.9s1.52-1.58,2.46-2.11c.94-.54,2-.78,3.16-.72.64.03,1.23.16,1.77.39.54.23,1,.58,1.37,1.05,0-.12-.03-.28-.09-.48-.06-.2-.12-.33-.17-.39.09-.29.41-.49.96-.59.55-.1,1.14-.06,1.77.13.62.19,1.17.54,1.63,1.07.46.52.64,1.26.52,2.22-.03.15-.06.31-.09.48-.03.17-.07.36-.13.57l-2.09,6.19c-.29,1.02-.25,1.6.13,1.74.2.09.46.05.78-.11.32-.16.65-.39,1-.7.35-.31.68-.65,1-1.02.32-.38.6-.74.83-1.09.17-.23.38-.41.63-.54.25-.13.52-.15.81-.07Zm-8.07-5.67c-.09-.17-.25-.3-.5-.37-.25-.07-.52-.1-.81-.09-.29.02-.59.07-.89.17-.31.1-.56.24-.76.41-.67.58-1.26,1.39-1.77,2.42-.51,1.03-.91,2.07-1.2,3.12-.29,1.1-.44,2.09-.44,2.94s.2,1.33.61,1.42c.29.12.65-.07,1.09-.55.44-.48.87-1.06,1.31-1.74.44-.68.84-1.37,1.22-2.05.38-.68.64-1.18.78-1.5l1.35-4.19Z"/><path class="cls-1" d="m138.55,159.62c.32.12.55.34.7.68.15.33.1.72-.13,1.16-.81,1.4-1.76,2.59-2.83,3.6-1.08,1-2.28,1.53-3.62,1.59-1.13,0-2.03-.24-2.68-.72-.65-.48-1.11-1.1-1.37-1.85-.67.76-1.39,1.37-2.16,1.83-.77.47-1.59.71-2.46.74-1.1,0-1.98-.22-2.62-.68-.64-.45-1.1-1.04-1.4-1.77-.29-.73-.42-1.52-.39-2.38.03-.86.19-1.71.48-2.55l2.27-6.93c.09-.52.01-.86-.22-1,.09-.29.41-.49.96-.59.55-.1,1.14-.06,1.77.13.62.19,1.17.54,1.64,1.07.46.52.64,1.24.52,2.14-.03.29-.12.65-.26,1.09l-1.92,5.71c-.23.76-.34,1.31-.33,1.66.01.35.12.55.33.61.2.09.49.03.85-.17.36-.2.73-.49,1.11-.85.38-.36.74-.77,1.09-1.22.35-.45.6-.88.74-1.29.06-.12.09-.23.09-.35l2.31-6.93c.09-.52.01-.86-.22-1,.09-.29.41-.49.96-.59.55-.1,1.14-.06,1.77.13.62.19,1.17.54,1.64,1.07.46.52.64,1.24.52,2.14-.03.29-.12.65-.26,1.09l-1.92,5.71c-.23.76-.34,1.31-.33,1.66.01.35.12.55.33.61.2.09.46.05.78-.11.32-.16.65-.39,1-.7.35-.31.68-.65,1-1.02.32-.38.6-.74.83-1.09.15-.23.35-.41.61-.54s.54-.15.83-.07Z"/><path class="cls-1" d="m151.54,159.62c.32.12.55.34.7.68.15.33.1.72-.13,1.16-.81,1.48-1.9,2.72-3.25,3.71-1.35.99-2.91,1.48-4.69,1.48-2.01,0-3.55-.38-4.62-1.16-1.08-.77-1.8-1.74-2.16-2.92-.36-1.18-.4-2.45-.11-3.81.29-1.37.81-2.64,1.55-3.82s1.66-2.16,2.75-2.94c1.09-.78,2.27-1.19,3.55-1.22.84-.03,1.67.09,2.49.35.81.26,1.42.67,1.83,1.22.41.64.49,1.39.26,2.25-.23.86-.64,1.69-1.22,2.51-.84,1.19-1.79,2.09-2.86,2.7-1.06.61-2.32.94-3.77,1-.06.76.07,1.38.37,1.88.31.49.81.8,1.5.92.67.12,1.31.1,1.94-.04s1.21-.38,1.77-.7c.55-.32,1.05-.7,1.5-1.16s.84-.94,1.16-1.46c.15-.23.35-.41.61-.54.26-.13.54-.15.83-.07Zm-4.4-6.54c-.23-.15-.56-.09-.98.17-.42.26-.87.65-1.33,1.18-.47.52-.91,1.13-1.33,1.83-.42.7-.75,1.4-.98,2.09.7.12,1.36-.08,1.98-.59.62-.51,1.16-1.1,1.59-1.77.44-.67.76-1.3.96-1.9.2-.6.23-.94.09-1.02Z"/><path class="cls-1" d="m205.21,149.24c.87.15,1.71.06,2.51-.26.8-.32,1.51-.76,2.14-1.33.62-.57,1.17-1.21,1.64-1.92.46-.71.81-1.39,1.02-2.03.22-.64.31-1.18.26-1.61s-.24-.68-.59-.74c-.52-.09-1.08-.02-1.68.2-.6.22-1.19.53-1.79.94-.6.41-1.19.89-1.79,1.46-.6.57-1.16,1.16-1.68,1.77l-4.4,13.12c-.49,1.42-.7,2.63-.61,3.62.09.99.51,1.6,1.26,1.83-.64.41-1.3.69-1.98.85-.68.16-1.34.15-1.98-.02-.73-.2-1.26-.54-1.59-1-.33-.46-.55-1-.65-1.61-.1-.61-.11-1.25-.02-1.92.09-.67.2-1.29.35-1.88l5.58-16.79c.12-.35.15-.65.11-.92-.04-.26-.15-.45-.33-.57-.17-.12-.39-.12-.65-.02-.26.1-.57.34-.92.72-.49.58-.95,1.32-1.37,2.2-.42.89-.75,1.84-.98,2.86-.23.96-.34,1.9-.33,2.83.01.93.2,1.73.54,2.4-1.48.23-2.68.15-3.6-.26-.92-.41-1.58-1.02-2.01-1.83-.42-.81-.61-1.74-.57-2.79.04-1.05.28-2.09.72-3.14.32-.84.75-1.63,1.29-2.35.54-.73,1.16-1.35,1.85-1.88.44-.32,1.02-.58,1.77-.78.74-.2,1.53-.33,2.38-.37.84-.04,1.69,0,2.55.13.86.13,1.63.35,2.33.65s1.26.71,1.7,1.2c.44.49.65,1.09.65,1.79,1.16-1.02,2.37-1.84,3.62-2.46,1.25-.62,2.46-.86,3.62-.72.55.09,1.05.28,1.5.59.45.31.84.68,1.18,1.13.33.45.58.95.74,1.48.16.54.23,1.07.2,1.59-.15,1.48-.67,2.92-1.57,4.32-.9,1.4-1.99,2.51-3.27,3.36,1.16.96,1.92,2.14,2.27,3.55.35,1.41.35,2.86,0,4.36-.35,1.5-1.03,2.96-2.05,4.38-1.02,1.42-2.31,2.65-3.88,3.68-1.57,1.03-3.4,1.78-5.49,2.25-2.09.46-4.38.49-6.85.09-2.35-.41-4.22-1.13-5.6-2.16-1.38-1.03-2.37-2.19-2.97-3.49-.6-1.29-.84-2.61-.74-3.95.1-1.34.46-2.49,1.07-3.47.61-.97,1.42-1.68,2.42-2.12s2.13-.41,3.38.09c-.93,1.63-1.54,3.16-1.83,4.6-.29,1.44-.28,2.71.02,3.82.31,1.1.9,2.01,1.79,2.7.89.7,2.04,1.13,3.47,1.31,1.34.15,2.7,0,4.1-.41,1.4-.42,2.68-1.03,3.86-1.83,1.18-.8,2.19-1.74,3.03-2.81.84-1.08,1.4-2.18,1.68-3.31.28-1.13.21-2.25-.2-3.34-.41-1.09-1.28-2.06-2.62-2.9-.23-.09-.48-.2-.74-.33s-.51-.28-.74-.46c-.38-.29-.63-.61-.74-.96-.12-.35-.04-.73.22-1.13Z"/><path class="cls-1" d="m230.68,159.62c.32.12.55.34.7.68.15.33.1.72-.13,1.16-.81,1.48-1.9,2.72-3.25,3.71-1.35.99-2.91,1.48-4.69,1.48-2.01,0-3.55-.38-4.62-1.16-1.08-.77-1.8-1.74-2.16-2.92-.36-1.18-.4-2.45-.11-3.81.29-1.37.81-2.64,1.55-3.82s1.66-2.16,2.75-2.94c1.09-.78,2.27-1.19,3.55-1.22.84-.03,1.67.09,2.49.35.81.26,1.42.67,1.83,1.22.41.64.49,1.39.26,2.25-.23.86-.64,1.69-1.22,2.51-.84,1.19-1.79,2.09-2.86,2.7-1.06.61-2.32.94-3.77,1-.06.76.07,1.38.37,1.88.31.49.81.8,1.5.92.67.12,1.31.1,1.94-.04s1.21-.38,1.77-.7c.55-.32,1.05-.7,1.5-1.16s.84-.94,1.16-1.46c.15-.23.35-.41.61-.54.26-.13.54-.15.83-.07Zm-4.4-6.54c-.23-.15-.56-.09-.98.17-.42.26-.87.65-1.33,1.18-.47.52-.91,1.13-1.33,1.83-.42.7-.75,1.4-.98,2.09.7.12,1.36-.08,1.98-.59.62-.51,1.16-1.1,1.59-1.77.44-.67.76-1.3.96-1.9.2-.6.23-.94.09-1.02Z"/><path class="cls-1" d="m244.02,159.62c.32.12.55.34.7.68.14.33.1.72-.13,1.16-.7,1.19-1.47,2.21-2.31,3.05-.84.84-1.98,1.35-3.4,1.53-.32.52-.73,1-1.24,1.42-.51.42-1.06.78-1.66,1.07-.6.29-1.23.51-1.9.65-.67.15-1.31.22-1.92.22-1.1,0-1.93-.32-2.46-.96-.54-.64-.79-1.34-.76-2.11.03-.77.31-1.48.85-2.14.54-.65,1.31-.98,2.33-.98.55,0,1.05.02,1.5.07.45.04.92.09,1.42.15-.09-.44-.21-.86-.37-1.26-.16-.41-.35-.81-.57-1.22-.22-.41-.47-.84-.74-1.29-.28-.45-.56-.95-.85-1.5-.2.76-.47,1.55-.79,2.38-.32.83-.81,1.66-1.48,2.51-.23.32-.52.48-.85.48s-.65-.12-.94-.35c-.32-.26-.47-.54-.46-.85.02-.31.14-.6.37-.89.61-.76,1.06-1.49,1.35-2.2.29-.71.52-1.41.68-2.09.16-.68.29-1.34.39-1.98.1-.64.28-1.26.54-1.88.23-.67.64-1.25,1.22-1.74.58-.49,1.24-.89,1.96-1.2s1.48-.52,2.25-.65c.77-.13,1.48-.2,2.11-.2.09-.15.22-.28.39-.41.17-.13.35-.21.52-.24.38-.03.82.11,1.33.41.51.31.79.66.85,1.07.06.23,0,.44-.17.61-.17.2-.41.55-.72,1.05-.31.49-.58,1.02-.83,1.57-.25.55-.43,1.07-.54,1.55-.12.48-.09.82.09,1.02-.15.09-.36.09-.63,0-.28-.09-.56-.22-.85-.41-.29-.19-.55-.41-.78-.65-.23-.25-.38-.49-.44-.72-.06-.2-.05-.46.02-.78.07-.32.17-.65.28-.98.12-.33.25-.65.39-.96.15-.31.28-.57.39-.81-.44.09-.8.26-1.09.52-.29.26-.52.57-.7.92-.17.35-.3.71-.37,1.09-.07.38-.08.74-.02,1.09.09.67.31,1.37.65,2.09.35.73.72,1.46,1.11,2.2s.76,1.49,1.11,2.25c.35.76.57,1.48.65,2.18.64-.29,1.23-.71,1.77-1.26.54-.55.97-1.09,1.29-1.61.14-.23.35-.41.61-.54s.54-.15.83-.07Zm-11.77,8.07c.41.03.83-.12,1.29-.44.45-.32.82-.74,1.11-1.26-.41-.06-.78-.12-1.13-.17-.35-.06-.65-.09-.92-.09-.38.03-.7.15-.96.35-.26.2-.43.43-.5.68-.07.25-.02.46.15.65.17.19.49.28.96.28Z"/><path class="cls-1" d="m262.16,159.62c.32.12.55.34.7.68.15.33.1.72-.13,1.16-.35.61-.72,1.18-1.11,1.7s-.81.99-1.26,1.4c-.45.41-.97.74-1.55,1-.58.26-1.25.44-2.01.52-.61.06-1.2.04-1.77-.07-.57-.1-1.13-.27-1.68-.5-1.11.81-2.38,1.19-3.84,1.13-.49-.03-1.06-.14-1.7-.33-.64-.19-1.16-.47-1.57-.85l-1.92,5.67c-.49,1.42-.7,2.63-.61,3.62.09.99.51,1.6,1.26,1.83-.67.41-1.34.69-2.01.85-.67.16-1.32.15-1.96-.02-.73-.2-1.26-.54-1.59-1-.33-.47-.55-1-.65-1.61-.1-.61-.11-1.25-.02-1.92.09-.67.2-1.29.35-1.88l6.24-18.58c.03-.52-.04-.87-.22-1.05.06-.26.32-.44.78-.54.46-.1.97-.09,1.5.02.54.12,1.05.36,1.55.72.49.36.81.87.96,1.5.49-.67,1.05-1.24,1.68-1.72.62-.48,1.36-.69,2.2-.63,1.02.09,1.82.34,2.42.76.6.42,1.04.96,1.33,1.61.29.65.44,1.39.46,2.2.01.81-.04,1.63-.15,2.44-.17.93-.45,1.88-.83,2.86-.38.97-.87,1.88-1.48,2.73.44.09.81.12,1.13.09.41-.03.81-.15,1.2-.37.39-.22.77-.48,1.13-.79.36-.31.69-.64.98-1,.29-.36.54-.7.74-1.02.17-.23.39-.41.63-.54.25-.13.52-.15.81-.07Zm-15.17,3.66c-.09.23-.02.39.2.46.22.07.48.11.78.11s.61-.04.92-.11c.3-.07.52-.14.63-.2-.67-.35-1.22-.58-1.66-.7-.44-.12-.73.03-.87.44Zm5.93-5.54c.29-1.1.44-2.08.44-2.92s-.2-1.31-.61-1.4c-.29-.12-.65.05-1.07.5-.42.45-.85,1-1.29,1.66-.44.65-.84,1.32-1.2,2.01-.36.68-.63,1.2-.81,1.55l-.17.57c.46.06.98.24,1.55.55.57.31,1.16.65,1.77,1.02.29-.52.55-1.09.79-1.7.23-.61.44-1.22.61-1.83Z"/><path class="cls-1" d="m278.16,159.62c.32.12.55.34.7.68.15.33.1.72-.13,1.16-.29.49-.59.96-.89,1.4-.3.44-.63.86-.98,1.26-.9,1.02-1.9,1.57-3.01,1.66-1.11.09-2.21-.15-3.31-.7-.67.49-1.4.88-2.18,1.16-.79.28-1.6.41-2.44.41-1.37,0-2.46-.31-3.29-.92-.83-.61-1.4-1.42-1.7-2.42-.31-1-.36-2.16-.17-3.47.19-1.31.59-2.67,1.2-4.1.26-.49.57-.81.94-.94s.73-.15,1.11-.07c.03-.78.22-1.52.59-2.2.36-.68.84-1.26,1.44-1.74.6-.48,1.28-.83,2.05-1.07.77-.23,1.55-.29,2.33-.17,1.63.23,2.84.84,3.64,1.81.8.97,1.25,2.13,1.35,3.47.1,1.34-.09,2.73-.57,4.19-.48,1.45-1.2,2.78-2.16,3.97.61.17,1.18.09,1.7-.26.44-.29.87-.66,1.31-1.11.44-.45.79-.91,1.05-1.37.17-.23.38-.41.63-.54s.52-.15.81-.07Zm-11.69,4.84c.76.2,1.53.03,2.31-.52-.64-.52-1.24-1.13-1.81-1.81-.57-.68-1.07-1.4-1.5-2.16-.52,1.31-.66,2.34-.41,3.1.25.76.72,1.22,1.42,1.4Zm1.18-8.94c-.03.52.04,1.08.2,1.66.16.58.38,1.16.68,1.74.29.58.64,1.14,1.05,1.68.41.54.83,1,1.26,1.37.61-.84,1.12-1.77,1.53-2.79.41-1.02.63-1.97.68-2.86.04-.89-.14-1.62-.54-2.2-.41-.58-1.11-.87-2.09-.87-.64.03-1.23.25-1.77.68-.54.42-.87.95-.98,1.59Z"/><path class="cls-1" d="m293.55,159.62c.32.12.55.34.7.68.15.33.1.72-.13,1.16-.58,1.05-1.24,1.95-1.96,2.7-.76.84-1.52,1.46-2.29,1.85-.77.39-1.52.6-2.25.63-1.34.03-2.52-.5-3.55-1.59-1.03-1.09-1.75-2.51-2.16-4.25-.41,1.28-.54,2.35-.39,3.23.14.87.55,1.42,1.22,1.66-.67.41-1.34.69-2.01.85-.67.16-1.32.15-1.96-.02-.73-.2-1.26-.54-1.59-1-.33-.46-.55-1-.65-1.61-.1-.61-.11-1.25-.02-1.92.09-.67.2-1.29.35-1.88l6.02-18.05c.09-.52.01-.87-.22-1.05.09-.29.41-.48.96-.57.55-.09,1.14-.04,1.77.15.62.19,1.17.54,1.63,1.07s.64,1.24.52,2.14c-.06.32-.15.67-.26,1.05l-2.88,8.55c.26-.32.57-.65.92-1,.35-.35.73-.65,1.13-.92.41-.26.84-.46,1.31-.59s.92-.15,1.35-.07c1.13.26,1.8.84,2.01,1.74.2.9.09,1.86-.35,2.88-.44,1.02-1.11,1.98-2.03,2.88-.92.9-1.94,1.48-3.07,1.74.06.44.19.93.39,1.48.2.55.49.99.87,1.31.38.32.86.47,1.44.44.58-.03,1.28-.41,2.09-1.13.7-.61,1.25-1.25,1.66-1.92.15-.23.34-.41.59-.54s.53-.15.85-.07Zm-9.29-1.7c.35.35.72.33,1.11-.07s.73-.9,1.02-1.53.49-1.23.61-1.81.09-.9-.09-.96c-.26-.06-.59.09-.98.46-.39.36-.75.8-1.07,1.31-.32.51-.56,1.02-.72,1.53-.16.51-.12.87.11,1.07Z"/><path class="cls-1" d="m306.55,159.62c.32.12.55.34.7.68.14.33.1.72-.13,1.16-.81,1.48-1.9,2.72-3.25,3.71-1.35.99-2.91,1.48-4.69,1.48-2.01,0-3.55-.38-4.62-1.16-1.08-.77-1.79-1.74-2.16-2.92-.36-1.18-.4-2.45-.11-3.81.29-1.37.81-2.64,1.55-3.82s1.66-2.16,2.75-2.94c1.09-.78,2.27-1.19,3.55-1.22.84-.03,1.67.09,2.49.35.81.26,1.42.67,1.83,1.22.41.64.49,1.39.26,2.25-.23.86-.64,1.69-1.22,2.51-.84,1.19-1.8,2.09-2.86,2.7-1.06.61-2.32.94-3.77,1-.06.76.07,1.38.37,1.88.31.49.81.8,1.5.92.67.12,1.31.1,1.94-.04.62-.15,1.21-.38,1.77-.7.55-.32,1.05-.7,1.5-1.16.45-.45.84-.94,1.16-1.46.14-.23.35-.41.61-.54s.54-.15.83-.07Zm-4.4-6.54c-.23-.15-.56-.09-.98.17-.42.26-.87.65-1.33,1.18s-.91,1.13-1.33,1.83c-.42.7-.75,1.4-.98,2.09.7.12,1.36-.08,1.98-.59.62-.51,1.16-1.1,1.59-1.77.44-.67.76-1.3.96-1.9.2-.6.23-.94.09-1.02Z"/><path class="cls-1" d="m360.22,149.24c.87.15,1.71.06,2.51-.26.8-.32,1.51-.76,2.14-1.33s1.17-1.21,1.64-1.92c.46-.71.81-1.39,1.02-2.03.22-.64.31-1.18.26-1.61s-.24-.68-.59-.74c-.52-.09-1.08-.02-1.68.2-.6.22-1.19.53-1.79.94-.6.41-1.19.89-1.79,1.46-.6.57-1.16,1.16-1.68,1.77l-4.4,13.12c-.49,1.42-.7,2.63-.61,3.62.09.99.51,1.6,1.26,1.83-.64.41-1.3.69-1.98.85-.68.16-1.34.15-1.98-.02-.73-.2-1.26-.54-1.59-1-.33-.46-.55-1-.65-1.61-.1-.61-.11-1.25-.02-1.92.09-.67.2-1.29.35-1.88l5.58-16.79c.12-.35.15-.65.11-.92-.04-.26-.15-.45-.33-.57-.17-.12-.39-.12-.65-.02-.26.1-.57.34-.92.72-.5.58-.95,1.32-1.37,2.2-.42.89-.75,1.84-.98,2.86-.23.96-.34,1.9-.33,2.83.01.93.2,1.73.54,2.4-1.48.23-2.68.15-3.6-.26-.92-.41-1.58-1.02-2.01-1.83-.42-.81-.61-1.74-.57-2.79.04-1.05.28-2.09.72-3.14.32-.84.75-1.63,1.29-2.35.54-.73,1.16-1.35,1.85-1.88.44-.32,1.02-.58,1.77-.78.74-.2,1.53-.33,2.38-.37.84-.04,1.69,0,2.55.13.86.13,1.64.35,2.33.65s1.26.71,1.7,1.2c.44.49.65,1.09.65,1.79,1.16-1.02,2.37-1.84,3.62-2.46s2.46-.86,3.62-.72c.55.09,1.05.28,1.5.59.45.31.84.68,1.18,1.13.33.45.58.95.74,1.48.16.54.22,1.07.2,1.59-.15,1.48-.67,2.92-1.57,4.32-.9,1.4-1.99,2.51-3.27,3.36,1.16.96,1.92,2.14,2.27,3.55.35,1.41.35,2.86,0,4.36-.35,1.5-1.03,2.96-2.05,4.38-1.02,1.42-2.31,2.65-3.88,3.68-1.57,1.03-3.4,1.78-5.49,2.25-2.09.46-4.38.49-6.85.09-2.35-.41-4.22-1.13-5.6-2.16-1.38-1.03-2.37-2.19-2.96-3.49s-.84-2.61-.74-3.95c.1-1.34.46-2.49,1.07-3.47.61-.97,1.42-1.68,2.42-2.12,1-.44,2.13-.41,3.38.09-.93,1.63-1.54,3.16-1.83,4.6-.29,1.44-.28,2.71.02,3.82.3,1.1.9,2.01,1.79,2.7.89.7,2.04,1.13,3.47,1.31,1.34.15,2.7,0,4.1-.41,1.4-.42,2.68-1.03,3.86-1.83,1.18-.8,2.19-1.74,3.03-2.81.84-1.08,1.4-2.18,1.68-3.31s.21-2.25-.2-3.34c-.41-1.09-1.28-2.06-2.62-2.9-.23-.09-.48-.2-.74-.33s-.51-.28-.74-.46c-.38-.29-.62-.61-.74-.96s-.04-.73.22-1.13Z"/><path class="cls-1" d="m390.39,159.62c.32.12.55.34.7.68.14.33.1.72-.13,1.16-.84,1.4-1.8,2.59-2.86,3.6-1.06,1-2.27,1.53-3.64,1.59-1.37,0-2.39-.35-3.07-1.05-.68-.7-1.1-1.55-1.24-2.57-.23.44-.5.88-.81,1.33-.31.45-.65.85-1.05,1.2-.39.35-.82.63-1.29.85-.47.22-.97.3-1.53.24-1.02-.09-1.83-.34-2.44-.76-.61-.42-1.05-.96-1.33-1.61-.28-.65-.43-1.38-.46-2.18-.03-.8.03-1.62.17-2.46.17-1.02.49-2.06.94-3.12.45-1.06,1.02-2.03,1.72-2.9.7-.87,1.52-1.58,2.46-2.11.94-.54,2.01-.78,3.21-.72.61.03,1.18.16,1.72.39.54.23,1,.58,1.37,1.05.06-.44-.01-.73-.22-.87.09-.29.41-.49.96-.59.55-.1,1.13-.06,1.74.13.61.19,1.15.54,1.61,1.07.46.52.64,1.24.52,2.14-.03.15-.06.31-.09.48-.03.17-.07.38-.13.61l-1.96,5.71c-.23.76-.34,1.31-.33,1.66.01.35.12.55.33.61.2.09.46.05.79-.11s.65-.39,1-.7.69-.65,1.02-1.02c.33-.38.62-.74.85-1.09.15-.23.34-.41.59-.54.25-.13.53-.15.85-.07Zm-8.07-5.67c-.2-.35-.64-.51-1.31-.48-.67.03-1.24.23-1.7.61-.67.58-1.26,1.39-1.77,2.42-.51,1.03-.91,2.07-1.2,3.12-.29,1.1-.44,2.09-.44,2.94s.2,1.33.61,1.42c.29.12.65-.07,1.09-.55.44-.48.87-1.06,1.31-1.74.44-.68.84-1.37,1.22-2.05.38-.68.64-1.18.78-1.5l1.4-4.19Z"/><path class="cls-1" d="m408.01,159.62c.32.12.55.34.7.68.15.33.1.72-.13,1.16-.81,1.4-1.76,2.59-2.83,3.6-1.08,1-2.28,1.53-3.62,1.59-1.39,0-2.43-.34-3.1-1.02-.67-.68-1.09-1.53-1.26-2.55-.23.44-.5.88-.81,1.33-.3.45-.65.85-1.05,1.2-.39.35-.81.63-1.26.83-.45.2-.95.28-1.5.22-1.02-.09-1.83-.34-2.44-.76-.61-.42-1.05-.96-1.33-1.61-.28-.65-.43-1.38-.46-2.18-.03-.8.03-1.62.17-2.46.17-1.02.49-2.06.94-3.12.45-1.06,1.02-2.03,1.72-2.9.7-.87,1.52-1.58,2.46-2.11.94-.54,2-.78,3.16-.72.79.03,1.37.15,1.77.37.39.22.86.57,1.42,1.07l3.4-10.16c.06-.52-.02-.86-.22-1,.06-.29.36-.49.92-.59.55-.1,1.14-.06,1.77.13.62.19,1.17.54,1.64,1.07.46.52.64,1.24.52,2.14-.03.15-.06.31-.09.48s-.07.36-.13.57l-5.45,16.05c-.23.76-.33,1.31-.31,1.66.03.35.15.55.35.61.2.09.46.05.78-.11.32-.16.65-.39,1-.7.35-.31.68-.65,1-1.02.32-.38.6-.74.83-1.09.14-.23.34-.41.59-.54s.53-.15.85-.07Zm-8.07-5.67c-.09-.17-.25-.3-.5-.37-.25-.07-.52-.1-.81-.09-.29.02-.59.07-.89.17-.31.1-.56.24-.76.41-.67.58-1.26,1.39-1.77,2.42-.51,1.03-.91,2.07-1.2,3.12-.29,1.1-.44,2.09-.44,2.94s.2,1.33.61,1.42c.26.12.6-.05,1.02-.5.42-.45.85-1,1.29-1.64.44-.64.84-1.3,1.2-1.98.36-.68.63-1.2.81-1.55l1.44-4.36Z"/><path class="cls-1" d="m425.71,159.62c.32.12.55.34.7.68.14.33.1.72-.13,1.16-.84,1.4-1.8,2.59-2.86,3.6-1.06,1-2.27,1.53-3.64,1.59-1.37,0-2.39-.35-3.07-1.05-.68-.7-1.1-1.55-1.24-2.57-.23.44-.5.88-.81,1.33-.31.45-.65.85-1.05,1.2-.39.35-.82.63-1.29.85-.47.22-.97.3-1.53.24-1.02-.09-1.83-.34-2.44-.76-.61-.42-1.05-.96-1.33-1.61-.28-.65-.43-1.38-.46-2.18-.03-.8.03-1.62.17-2.46.17-1.02.49-2.06.94-3.12.45-1.06,1.02-2.03,1.72-2.9.7-.87,1.52-1.58,2.46-2.11.94-.54,2.01-.78,3.21-.72.61.03,1.18.16,1.72.39.54.23,1,.58,1.37,1.05.06-.44-.01-.73-.22-.87.09-.29.41-.49.96-.59.55-.1,1.13-.06,1.74.13.61.19,1.15.54,1.61,1.07.46.52.64,1.24.52,2.14-.03.15-.06.31-.09.48-.03.17-.07.38-.13.61l-1.96,5.71c-.23.76-.34,1.31-.33,1.66.01.35.12.55.33.61.2.09.46.05.79-.11s.65-.39,1-.7.69-.65,1.02-1.02c.33-.38.62-.74.85-1.09.15-.23.34-.41.59-.54.25-.13.53-.15.85-.07Zm-8.07-5.67c-.2-.35-.64-.51-1.31-.48-.67.03-1.24.23-1.7.61-.67.58-1.26,1.39-1.77,2.42-.51,1.03-.91,2.07-1.2,3.12-.29,1.1-.44,2.09-.44,2.94s.2,1.33.61,1.42c.29.12.65-.07,1.09-.55.44-.48.87-1.06,1.31-1.74.44-.68.84-1.37,1.22-2.05.38-.68.64-1.18.78-1.5l1.4-4.19Z"/><path class="cls-1" d="m450.04,159.62c.32.12.55.34.7.68.14.33.1.72-.13,1.16-.7,1.19-1.46,2.21-2.29,3.05-.83.84-1.96,1.35-3.38,1.53-.32.52-.73,1-1.24,1.42-.51.42-1.07.78-1.68,1.07-.61.29-1.25.51-1.92.65-.67.15-1.31.22-1.92.22-1.1,0-1.93-.32-2.46-.96-.54-.64-.79-1.34-.76-2.11.03-.77.31-1.48.85-2.14.54-.65,1.31-.98,2.33-.98.55,0,1.05.02,1.5.07.45.04.92.09,1.42.15-.09-.46-.21-.9-.37-1.31-.16-.41-.36-.81-.59-1.22-.23-.41-.49-.84-.76-1.31-.28-.46-.56-.99-.85-1.57-.23,1.1-.57,2.17-1.02,3.18-.45,1.02-1.2,1.86-2.25,2.53,0,.84-.25,1.75-.74,2.73s-1.13,1.88-1.9,2.7c-.77.83-1.62,1.53-2.55,2.09-.93.57-1.82.85-2.66.85-.93,0-1.66-.2-2.2-.59s-.89-.9-1.05-1.53c-.16-.62-.15-1.32.04-2.07.19-.76.53-1.5,1.03-2.22.49-.73,1.13-1.39,1.92-1.98.79-.6,1.69-1.04,2.7-1.33-.2-.79-.48-1.62-.83-2.51-.35-.89-.73-1.81-1.13-2.77-.26,1.02-.58,2.04-.96,3.05-.38,1.02-.92,1.98-1.61,2.88-.23.32-.52.48-.85.48s-.65-.12-.94-.35c-.32-.26-.47-.54-.46-.85.02-.31.14-.6.37-.89.52-.64.93-1.34,1.22-2.11.29-.77.51-1.55.65-2.33.15-.78.27-1.56.37-2.33.1-.77.23-1.5.37-2.2.2-1.02.64-1.88,1.31-2.59.67-.71,1.45-1.28,2.33-1.7.89-.42,1.83-.68,2.83-.78,1-.1,1.97-.07,2.9.11.14-.2.3-.38.48-.52.17-.15.39-.22.65-.22.38.03.8.23,1.26.61.46.38.7.77.7,1.18,0,.23-.09.44-.26.61-.23.17-.53.49-.89.94-.36.45-.71.93-1.03,1.44-.32.51-.57,1-.76,1.46-.19.47-.21.8-.07,1-.15.06-.35.02-.61-.11-.26-.13-.52-.31-.79-.52-.26-.22-.49-.47-.7-.76-.2-.29-.31-.55-.31-.78-.03-.2,0-.45.11-.74.1-.29.23-.59.39-.89.16-.31.33-.6.5-.87.17-.28.33-.5.48-.68-.58-.09-1.08-.04-1.48.13-.41.17-.73.44-.96.81-.23.36-.39.78-.46,1.26-.07.48-.08.97-.02,1.46.09.52.24,1.11.46,1.77.22.65.47,1.35.76,2.09.29.74.59,1.49.89,2.25.31.76.57,1.5.81,2.22.67-.67,1.15-1.42,1.44-2.25.29-.83.53-1.66.72-2.49.19-.83.41-1.64.65-2.42s.64-1.48,1.18-2.07c.54-.6,1.3-1.07,2.29-1.42s2.34-.51,4.05-.48c.09-.15.22-.28.39-.41.17-.13.35-.21.52-.24.17-.03.38,0,.63.07.25.07.48.18.7.33.22.15.41.31.59.5.17.19.28.39.3.59,0,.26-.07.47-.22.61-.17.2-.41.55-.7,1.05-.29.49-.57,1.02-.83,1.57s-.45,1.07-.57,1.55c-.12.48-.09.82.09,1.02-.15.09-.36.09-.63,0-.28-.09-.56-.22-.85-.41-.29-.19-.55-.41-.79-.65s-.38-.49-.44-.72c-.06-.2-.05-.46.02-.78.07-.32.17-.65.31-.98.13-.33.27-.66.41-.98.14-.32.28-.58.39-.78-.44.09-.81.26-1.11.52-.3.26-.54.57-.72.92-.17.35-.29.71-.35,1.09-.06.38-.06.74,0,1.09.09.67.3,1.37.63,2.09.33.73.7,1.46,1.09,2.2s.76,1.49,1.11,2.25c.35.76.57,1.48.65,2.18.64-.29,1.23-.71,1.77-1.26.54-.55.97-1.09,1.29-1.61.17-.23.38-.41.63-.54s.52-.15.81-.07Zm-22.59,10.81c.26,0,.52-.17.79-.5.26-.33.51-.75.74-1.24.23-.49.44-1.05.61-1.66.17-.61.31-1.21.39-1.79-.81.26-1.51.68-2.09,1.26-.58.58-1.03,1.42-1.35,2.53,0,.41.07.74.22,1,.15.26.38.39.7.39Zm10.81-2.75c.41.03.83-.11,1.29-.41.45-.31.83-.73,1.16-1.29-.44-.06-.83-.12-1.18-.17-.35-.06-.65-.09-.92-.09-.38.03-.7.15-.96.35-.26.2-.42.43-.48.68s0,.46.15.65c.16.19.47.28.94.28Z"/><circle class="cls-2" cx="168.96" cy="157.86" r="5.24"/><circle class="cls-2" cx="323.34" cy="157.86" r="5.24"/></svg>