<?xml version="1.0" encoding="UTF-8"?><svg id="Layer_1" xmlns="http://www.w3.org/2000/svg" viewBox="0 0 500 500"><defs><style>.cls-1{fill:#383636;}.cls-2{fill:#e37125;}.cls-3{fill:#d1d3d4;}</style></defs><circle class="cls-1" cx="250" cy="250" r="225.86"/><circle class="cls-3" cx="250" cy="250" r="194.49"/><path class="cls-1" d="m148.37,147.28c5.93-4.41,12.38-8.31,19.16-11.53,6.62-3.22,13.74-5.77,21.03-7.63,7.29-1.86,14.75-2.71,22.56-2.71,12.38,0,22.05,3.39,29.17,10.34l23.92,24.08c3.22,3.22,5.6,6.96,7.29,11.36,1.7,4.58,2.55,9.83,2.55,15.77,0,5.26-.68,10.85-2.04,16.79-1.52,5.93-3.39,11.87-5.77,17.64-2.54,5.77-5.42,11.19-8.65,16.28-3.22,5.25-6.78,9.66-10.34,13.39-4.92,4.92-9.67,7.97-14.25,9.16l8.48,8.31c1.52,1.52,2.71,3.39,3.22,5.42.51,2.04.68,3.91.68,5.6,0,2.21-.17,4.41-.5,6.28-.51,1.86-.85,3.73-1.19,5.26-.85,3.73-1.87,7.46-3.06,11.19-1.19,3.73-2.37,7.46-3.56,11.19-.51,1.86-1.19,3.9-1.86,6.27-.85,2.37-1.53,4.92-2.21,7.47-1.01,3.56-1.7,6.78-2.04,9.33l4.75,4.75c1.7,1.52,2.55,3.22,2.55,5.09,0,2.88-1.19,5.26-3.56,7.47-2.55,2.2-5.43,3.9-8.65,5.25-3.39,1.53-6.78,2.55-10.34,3.22-3.56.68-6.61,1.02-8.98,1.02-.85,0-2.04-.17-3.57-.34-1.52-.17-2.88-.68-4.41-1.19-1.52-.51-3.05-1.36-4.41-2.55-1.52-1.19-2.54-2.55-3.39-4.41-7.63,3.56-15.77,5.43-24.76,5.43-9.83,0-18.49-1.36-26.12-4.24-7.63-2.71-14.24-6.78-19.67-12.21l-23.91-24.08c-11.03-10.85-16.62-26.28-16.62-46.13,0-10.01,1.36-20.18,4.24-30.53,2.71-10.18,6.44-20.18,11.02-29.85,4.58-9.67,10.01-18.99,16.28-27.64,6.27-8.65,12.72-16.45,19.67-23.4,5.42-5.42,11.19-10.34,17.3-14.92Zm13.74,154.16l-8.48-8.48c-.35,3.05-.51,6.11-.51,8.99,0,1.19,0,1.86.17,2.37,2.88-.51,5.94-1.36,8.83-2.88Zm20.51-60.38l-8.98-8.99c-.68,1.36-1.36,2.72-2.04,3.91-.68,1.35-1.36,2.71-1.86,4.07,4.41.17,8.65.5,12.88,1.01Z"/><path class="cls-2" d="m174.95,318.42c1.36-3.05,1.01-2.54,2.88-6.44-9.84,9.33-21.37,14.92-35.78,14.92-54.44,0-63.43-48-45.79-96.16,17.8-48.84,62.58-97.85,114.64-97.85,33.58,0,34.93,28.66,25.43,54.61-4.57,12.89-11.87,24.93-19.33,32.56-7.29,7.63-12.21,7.8-19.5,7.8-19,0-23.92-7.12-22.73-10.51.35-.85,1.19-1.53,2.38-1.53,2.37,0,3.9.68,5.42.68,1.19,0,2.71-.51,4.75-2.55,10.18-9.49,20.86-25.78,26.12-40.02,5.26-14.42,4.58-26.46-8.48-26.46-29.5,0-59.86,41.04-74.79,82.26-15.09,41.21-14.75,82.59,17.13,82.59,28.15,0,40.7-24.93,51.21-49.86-9.49,1.53-20.52,3.39-24.93,4.24-8.98,1.86-15.94,3.05-18.31,9.67l-.17.34c-.85,2.04-1.52,2.88-2.37,2.88-2.71,0-4.91-11.19-1.52-20.36,2.21-6.27,7.12-11.7,16.11-11.7,8.31.5,12.04,1.19,27.98,1.19l12.39-.17c4.91,0,6.61,3.56,3.56,15.44-9.16,33.91-19.33,55.96-8.31,56.3,2.21,0,2.88.68,2.55,1.35-1.01,2.71-13.74,8.31-22.89,8.31-6.27,0-10.85-2.88-7.63-11.53Z"/><path class="cls-1" d="m292.71,154.77c5.93-4.41,12.38-8.31,19.16-11.53,6.62-3.22,13.74-5.77,21.03-7.63,7.29-1.86,14.75-2.71,22.56-2.71,12.38,0,22.05,3.39,29.17,10.34l23.92,24.08c3.22,3.22,5.6,6.96,7.29,11.36,1.7,4.58,2.55,9.83,2.55,15.77,0,5.26-.68,10.85-2.04,16.79-1.52,5.93-3.39,11.87-5.77,17.64-2.54,5.77-5.42,11.19-8.65,16.28-3.22,5.25-6.78,9.66-10.34,13.39-4.92,4.92-9.67,7.97-14.25,9.16l8.48,8.31c1.52,1.52,2.71,3.39,3.22,5.42.51,2.04.68,3.91.68,5.6,0,2.21-.17,4.41-.5,6.28-.51,1.86-.85,3.73-1.19,5.26-.85,3.73-1.87,7.46-3.06,11.19-1.19,3.73-2.37,7.46-3.56,11.19-.51,1.86-1.19,3.9-1.86,6.27-.85,2.37-1.53,4.92-2.21,7.47-1.01,3.56-1.7,6.78-2.04,9.33l4.75,4.75c1.7,1.52,2.55,3.22,2.55,5.09,0,2.88-1.19,5.26-3.56,7.47-2.55,2.2-5.43,3.9-8.65,5.25-3.39,1.53-6.78,2.55-10.34,3.22-3.56.68-6.61,1.02-8.98,1.02-.85,0-2.04-.17-3.57-.34-1.52-.17-2.88-.68-4.41-1.19-1.52-.51-3.05-1.36-4.41-2.55-1.52-1.19-2.54-2.55-3.39-4.41-7.63,3.56-15.77,5.43-24.76,5.43-9.83,0-18.49-1.36-26.12-4.24-7.63-2.71-14.24-6.78-19.67-12.21l-23.91-24.08c-11.03-10.85-16.62-26.28-16.62-46.13,0-10.01,1.36-20.18,4.24-30.53,2.71-10.18,6.44-20.18,11.02-29.85,4.58-9.67,10.01-18.99,16.28-27.64,6.27-8.65,12.72-16.45,19.67-23.4,5.42-5.42,11.19-10.34,17.3-14.92Zm13.74,154.16l-8.48-8.48c-.35,3.05-.51,6.11-.51,8.99,0,1.19,0,1.86.17,2.37,2.88-.51,5.94-1.36,8.83-2.88Zm20.51-60.38l-8.98-8.99c-.68,1.36-1.36,2.72-2.04,3.91-.68,1.35-1.36,2.71-1.86,4.07,4.41.17,8.65.5,12.88,1.01Z"/><path class="cls-2" d="m319.29,325.92c1.36-3.05,1.01-2.54,2.88-6.44-9.84,9.33-21.37,14.92-35.78,14.92-54.44,0-63.43-48-45.79-96.16,17.8-48.84,62.58-97.85,114.64-97.85,33.58,0,34.93,28.66,25.43,54.61-4.57,12.89-11.87,24.93-19.33,32.56-7.29,7.63-12.21,7.8-19.5,7.8-19,0-23.92-7.12-22.73-10.51.35-.85,1.19-1.53,2.38-1.53,2.37,0,3.9.68,5.42.68,1.19,0,2.71-.51,4.75-2.55,10.18-9.49,20.86-25.78,26.12-40.02,5.26-14.42,4.58-26.46-8.48-26.46-29.5,0-59.86,41.04-74.79,82.26-15.09,41.21-14.75,82.59,17.13,82.59,28.15,0,40.7-24.93,51.21-49.86-9.49,1.53-20.52,3.39-24.93,4.24-8.98,1.86-15.94,3.05-18.31,9.67l-.17.34c-.85,2.04-1.52,2.88-2.37,2.88-2.71,0-4.91-11.19-1.52-20.36,2.21-6.27,7.12-11.7,16.11-11.7,8.31.5,12.04,1.19,27.98,1.19l12.39-.17c4.91,0,6.61,3.56,3.56,15.44-9.16,33.91-19.33,55.96-8.31,56.3,2.21,0,2.88.68,2.55,1.35-1.01,2.71-13.74,8.31-22.89,8.31-6.27,0-10.85-2.88-7.63-11.53Z"/></svg>